<?xml version="1.0" encoding="UTF-8" standalone="no"?>
<!DOCTYPE svg PUBLIC "-//W3C//DTD SVG 1.1//EN"
 "http://www.w3.org/Graphics/SVG/1.1/DTD/svg11.dtd">
<!-- Generated by graphviz version 2.42.4 (0)
 -->
<!-- Pages: 1 -->
<svg width="513pt" height="303pt"
 viewBox="0.00 0.00 513.00 303.00" xmlns="http://www.w3.org/2000/svg" xmlns:xlink="http://www.w3.org/1999/xlink">
<g id="graph0" class="graph" transform="scale(1 1) rotate(0) translate(36 267)">
<polygon fill="#ffffff" stroke="transparent" points="-36,36 -36,-267 477,-267 477,36 -36,36"/>
<!-- postfix -->
<g id="node1" class="node">
<title>postfix</title>
<polygon fill="none" stroke="black" points="435,-125 370,-125 370,-121 366,-121 366,-117 370,-117 370,-97 366,-97 366,-93 370,-93 370,-89 435,-89 435,-125"/>
<polyline fill="none" stroke="black" points="370,-121 374,-121 374,-117 370,-117 "/>
<polyline fill="none" stroke="black" points="370,-97 374,-97 374,-93 370,-93 "/>
<text text-anchor="middle" x="402.5" y="-103.3" font-family="Times,serif" font-size="14.00">postfix</text>
</g>
<!-- mongo -->
<g id="node2" class="node">
<title>mongo</title>
<polygon fill="none" stroke="black" points="435,-179 370,-179 370,-175 366,-175 366,-171 370,-171 370,-151 366,-151 366,-147 370,-147 370,-143 435,-143 435,-179"/>
<polyline fill="none" stroke="black" points="370,-175 374,-175 374,-171 370,-171 "/>
<polyline fill="none" stroke="black" points="370,-151 374,-151 374,-147 370,-147 "/>
<text text-anchor="middle" x="402.5" y="-157.3" font-family="Times,serif" font-size="14.00">mongo</text>
</g>
<!-- sls -->
<g id="node3" class="node">
<title>sls</title>
<polygon fill="none" stroke="black" points="300,-231 246,-231 246,-227 242,-227 242,-223 246,-223 246,-203 242,-203 242,-199 246,-199 246,-195 300,-195 300,-231"/>
<polyline fill="none" stroke="black" points="246,-227 250,-227 250,-223 246,-223 "/>
<polyline fill="none" stroke="black" points="246,-203 250,-203 250,-199 246,-199 "/>
<text text-anchor="middle" x="273" y="-209.3" font-family="Times,serif" font-size="14.00">sls</text>
</g>
<!-- sls&#45;&gt;mongo -->
<g id="edge1" class="edge">
<title>sls&#45;&gt;mongo</title>
<path fill="none" stroke="black" d="M300.11,-202.35C317.39,-195.3 340.42,-185.91 360.16,-177.86"/>
<polygon fill="black" stroke="black" points="361.61,-181.05 369.55,-174.03 358.97,-174.57 361.61,-181.05"/>
</g>
<!-- gocdb2sls -->
<g id="node4" class="node">
<title>gocdb2sls</title>
<polygon fill="none" stroke="black" points="182,-231 94,-231 94,-227 90,-227 90,-223 94,-223 94,-203 90,-203 90,-199 94,-199 94,-195 182,-195 182,-231"/>
<polyline fill="none" stroke="black" points="94,-227 98,-227 98,-223 94,-223 "/>
<polyline fill="none" stroke="black" points="94,-203 98,-203 98,-199 94,-199 "/>
<text text-anchor="middle" x="138" y="-209.3" font-family="Times,serif" font-size="14.00">gocdb2sls</text>
</g>
<!-- gocdb2sls&#45;&gt;sls -->
<g id="edge6" class="edge">
<title>gocdb2sls&#45;&gt;sls</title>
<path fill="none" stroke="black" d="M182.18,-213C199.35,-213 218.9,-213 235.37,-213"/>
<polygon fill="black" stroke="black" points="235.69,-216.5 245.69,-213 235.69,-209.5 235.69,-216.5"/>
</g>
<!-- sca&#45;auth -->
<g id="node5" class="node">
<title>sca&#45;auth</title>
<polygon fill="none" stroke="black" points="441,-71 364,-71 364,-67 360,-67 360,-63 364,-63 364,-43 360,-43 360,-39 364,-39 364,-35 441,-35 441,-71"/>
<polyline fill="none" stroke="black" points="364,-67 368,-67 368,-63 364,-63 "/>
<polyline fill="none" stroke="black" points="364,-43 368,-43 368,-39 364,-39 "/>
<text text-anchor="middle" x="402.5" y="-49.3" font-family="Times,serif" font-size="14.00">sca&#45;auth</text>
</g>
<!-- pwa&#45;admin1 -->
<g id="node6" class="node">
<title>pwa&#45;admin1</title>
<polygon fill="none" stroke="black" points="325,-123 221,-123 221,-119 217,-119 217,-115 221,-115 221,-95 217,-95 217,-91 221,-91 221,-87 325,-87 325,-123"/>
<polyline fill="none" stroke="black" points="221,-119 225,-119 225,-115 221,-115 "/>
<polyline fill="none" stroke="black" points="221,-95 225,-95 225,-91 221,-91 "/>
<text text-anchor="middle" x="273" y="-101.3" font-family="Times,serif" font-size="14.00">pwa&#45;admin1</text>
</g>
<!-- pwa&#45;admin1&#45;&gt;postfix -->
<g id="edge2" class="edge">
<title>pwa&#45;admin1&#45;&gt;postfix</title>
<path fill="none" stroke="black" d="M325.12,-105.8C336.57,-105.98 348.58,-106.17 359.6,-106.34"/>
<polygon fill="black" stroke="black" points="359.76,-109.85 369.81,-106.5 359.87,-102.85 359.76,-109.85"/>
</g>
<!-- pwa&#45;admin1&#45;&gt;mongo -->
<g id="edge4" class="edge">
<title>pwa&#45;admin1&#45;&gt;mongo</title>
<path fill="none" stroke="black" d="M315.04,-123.03C329.61,-129.43 346.01,-136.63 360.57,-143.02"/>
<polygon fill="black" stroke="black" points="359.27,-146.28 369.83,-147.09 362.09,-139.87 359.27,-146.28"/>
</g>
<!-- pwa&#45;admin1&#45;&gt;sca&#45;auth -->
<g id="edge5" class="edge">
<title>pwa&#45;admin1&#45;&gt;sca&#45;auth</title>
<path fill="none" stroke="black" stroke-dasharray="1,5" d="M318.24,-86.96C329.93,-82.19 342.59,-77.03 354.42,-72.2"/>
<polygon fill="black" stroke="black" points="355.77,-75.43 363.7,-68.42 353.12,-68.95 355.77,-75.43"/>
</g>
<!-- pwa&#45;pub1 -->
<g id="node7" class="node">
<title>pwa&#45;pub1</title>
<polygon fill="none" stroke="black" points="328,-177 218,-177 218,-173 214,-173 214,-169 218,-169 218,-149 214,-149 214,-145 218,-145 218,-141 328,-141 328,-177"/>
<polyline fill="none" stroke="black" points="218,-173 222,-173 222,-169 218,-169 "/>
<polyline fill="none" stroke="black" points="218,-149 222,-149 222,-145 218,-145 "/>
<text text-anchor="middle" x="273" y="-155.3" font-family="Times,serif" font-size="14.00">pwa&#45;pub[1&#45;4]</text>
</g>
<!-- pwa&#45;pub1&#45;&gt;mongo -->
<g id="edge3" class="edge">
<title>pwa&#45;pub1&#45;&gt;mongo</title>
<path fill="none" stroke="black" d="M328.07,-159.85C338.65,-160.01 349.59,-160.19 359.7,-160.34"/>
<polygon fill="black" stroke="black" points="359.82,-163.85 369.87,-160.5 359.93,-156.85 359.82,-163.85"/>
</g>
<!-- nginx -->
<g id="node8" class="node">
<title>nginx</title>
<polygon fill="none" stroke="black" points="166,-123 110,-123 110,-119 106,-119 106,-115 110,-115 110,-95 106,-95 106,-91 110,-91 110,-87 166,-87 166,-123"/>
<polyline fill="none" stroke="black" points="110,-119 114,-119 114,-115 110,-115 "/>
<polyline fill="none" stroke="black" points="110,-95 114,-95 114,-91 110,-91 "/>
<text text-anchor="middle" x="138" y="-101.3" font-family="Times,serif" font-size="14.00">nginx</text>
</g>
<!-- nginx&#45;&gt;sca&#45;auth -->
<g id="edge9" class="edge">
<title>nginx&#45;&gt;sca&#45;auth</title>
<path fill="none" stroke="black" d="M166.04,-94.3C181.12,-88.71 200.37,-82.17 218,-78 263.47,-67.24 316.46,-60.64 353.77,-56.94"/>
<polygon fill="black" stroke="black" points="354.24,-60.41 363.86,-55.98 353.57,-53.45 354.24,-60.41"/>
</g>
<!-- nginx&#45;&gt;pwa&#45;admin1 -->
<g id="edge8" class="edge">
<title>nginx&#45;&gt;pwa&#45;admin1</title>
<path fill="none" stroke="black" d="M166.24,-105C179.14,-105 195.12,-105 210.71,-105"/>
<polygon fill="black" stroke="black" points="210.87,-108.5 220.87,-105 210.87,-101.5 210.87,-108.5"/>
</g>
<!-- nginx&#45;&gt;pwa&#45;pub1 -->
<g id="edge7" class="edge">
<title>nginx&#45;&gt;pwa&#45;pub1</title>
<path fill="none" stroke="black" d="M166.24,-116.06C181.11,-122.1 200.07,-129.8 217.82,-137"/>
<polygon fill="black" stroke="black" points="216.94,-140.42 227.52,-140.94 219.57,-133.94 216.94,-140.42"/>
</g>
<!-- 80 -->
<g id="node9" class="node">
<title>80</title>
<ellipse fill="none" stroke="black" cx="29" cy="-181" rx="29" ry="29"/>
<text text-anchor="middle" x="29" y="-177.3" font-family="Times,serif" font-size="14.00">80</text>
</g>
<!-- 80&#45;&gt;nginx -->
<g id="edge10" class="edge">
<title>80&#45;&gt;nginx</title>
<path fill="none" stroke="black" d="M53.22,-164.51C67.87,-154.1 87.05,-140.48 103.36,-128.9"/>
<polygon fill="black" stroke="black" points="105.46,-131.7 111.58,-123.05 101.4,-125.99 105.46,-131.7"/>
</g>
<!-- 443 -->
<g id="node10" class="node">
<title>443</title>
<ellipse fill="none" stroke="black" cx="29" cy="-105" rx="29" ry="29"/>
<text text-anchor="middle" x="29" y="-101.3" font-family="Times,serif" font-size="14.00">443</text>
</g>
<!-- 443&#45;&gt;nginx -->
<g id="edge11" class="edge">
<title>443&#45;&gt;nginx</title>
<path fill="none" stroke="black" d="M58.11,-105C70.84,-105 86.07,-105 99.73,-105"/>
<polygon fill="black" stroke="black" points="99.81,-108.5 109.81,-105 99.81,-101.5 99.81,-108.5"/>
</g>
<!-- 9443 -->
<g id="node11" class="node">
<title>9443</title>
<ellipse fill="none" stroke="black" cx="29" cy="-29" rx="29" ry="29"/>
<text text-anchor="middle" x="29" y="-25.3" font-family="Times,serif" font-size="14.00">9443</text>
</g>
<!-- 9443&#45;&gt;nginx -->
<g id="edge12" class="edge">
<title>9443&#45;&gt;nginx</title>
<path fill="none" stroke="black" d="M53.22,-45.49C67.87,-55.9 87.05,-69.52 103.36,-81.1"/>
<polygon fill="black" stroke="black" points="101.4,-84.01 111.58,-86.95 105.46,-78.3 101.4,-84.01"/>
</g>
</g>
</svg>
